<svg height="512" viewBox="0 0 60 60" width="512" xmlns="http://www.w3.org/2000/svg">
  <g id="Icons">
    <path fill="white" d="m36.741 4.674a3 3 0 0 1 5.506.683l1.011 3.643h-6.228l-.549-1.975c-.005-.024-.011-.048-.017-.072a2.986 2.986 0 0 1 .277-2.279z"/>
    <path fill="white" d="m30.089 2.693a2.994 2.994 0 0 1 3.7 2.094l.732 2.635c.005.025.011.051.018.076l.472 1.702a3.982 3.982 0 0 0 -2.006 1.4 3.926 3.926 0 0 0 -.656 3.467 6.551 6.551 0 0 0 2.836 3.927 16.229 16.229 0 0 0 -1.668.636 3 3 0 0 1 -2.733-2.2l-.373-1.347v-.024l-1.311-4.71-1.1-3.955a3.007 3.007 0 0 1 2.089-3.701z"/>
    <path fill="white" d="m22.771 6.241a3.02 3.02 0 0 1 .807-.111 3.007 3.007 0 0 1 2.886 2.2l.512 1.847 1.507 5.444a3 3 0 0 1 -5.783 1.579l-1.445-5.2-.572-2.063a3 3 0 0 1 2.088-3.696z"/>
    <path fill="white" d="m13.826 11.858a2.979 2.979 0 0 1 1.809-1.413 3.014 3.014 0 0 1 .807-.111 3.007 3.007 0 0 1 2.886 2.2l.4 1.456 1.04 3.746.156.561a3 3 0 0 1 -2.09 3.692 3 3 0 0 1 -3.689-2.089l-1.6-5.765a2.984 2.984 0 0 1 .281-2.277z"/>
    <path fill="white" d="m14.378 47.888a9.337 9.337 0 0 0 -1.543.126c-4.473.748-7.809-.691-9.777-4.174a25.016 25.016 0 0 0 3.954 1.645 2 2 0 0 0 2.231-3.063 25.567 25.567 0 0 1 -4.664-11.855 20.457 20.457 0 0 0 10.4 11.338c9.151 4.29 13.375 7.4 13.954 14.339-2.878-3.076-8.67-8.356-14.555-8.356z"/>
    <path fill="white" d="m30 51.877c-1.767-4.753-5.76-7.576-11-10.239v-2.981a15.963 15.963 0 0 0 2.649 1.28 1.029 1.029 0 0 0 .351.063 1 1 0 0 0 .351-1.937c-7.217-2.706-7.351-8.808-7.351-9.063v-5.95a5.047 5.047 0 0 0 .574.4 4.965 4.965 0 0 0 2.454.65 5.041 5.041 0 0 0 1.345-.184 4.989 4.989 0 0 0 3.439-3.388c.107.072.2.157.315.221a4.964 4.964 0 0 0 2.454.649 5.04 5.04 0 0 0 1.345-.183 4.983 4.983 0 0 0 2.982-2.315 5.017 5.017 0 0 0 1.293 1.07 9.876 9.876 0 0 0 -3.1 3.579 1 1 0 0 0 1.79.894c2.687-5.363 11.026-5.443 11.109-5.443h3a1 1 0 0 0 0-2h-5a4.419 4.419 0 0 1 -4.728-3.482 1.944 1.944 0 0 1 .328-1.718 2 2 0 0 1 1.61-.8h7.79c.245 0 6 .1 6 9 0 5.32-3.384 8.4-6.657 11.371-.724.658-1.407 1.279-2.05 1.922-2.8 2.8-3.195 6.3-3.269 9.971-3.765 2.236-6.609 4.807-8.024 8.613z"/>
    <path fill="white" d="m47.165 48.014c-6.393-1.072-12.965 4.886-16.095 8.23.579-6.935 4.8-10.049 13.954-14.339a20.457 20.457 0 0 0 10.4-11.338 25.567 25.567 0 0 1 -4.664 11.855 2 2 0 0 0 2.23 3.064 25.123 25.123 0 0 0 3.955-1.646c-1.97 3.482-5.306 4.918-9.78 4.174z"/>
  </g>
</svg>
