<svg id="Glyph" height="512" viewBox="0 0 64 64" width="512" xmlns="http://www.w3.org/2000/svg"><g fill="#ffffff"><path d="m22.56 14.58h10.89c6.98886-.2167 6.993-10.36225-.0001-10.58h-10.8899c-6.98891.21673-6.99291 10.36228 0 10.58z"/><path d="m36.53 32.79a8.50857 8.50857 0 0 1 -1.78-5.24v-11.09c-1.91127.2824-13.04.08-13.45 0v11.09a8.66638 8.66638 0 0 1 -1.79 5.24l-7.95 10.38a8.851 8.851 0 0 0 -1.74995 5.96 10.8806 10.8806 0 0 0 10.86995 10.87h14.69a10.92074 10.92074 0 0 0 10.87-11.42 9.32032 9.32032 0 0 0 -1.9-5.6z"/><path d="m53.28 32.1-4.89-6.11a4.15855 4.15855 0 0 0 -7.00993 4.34012l-2.59007 2.10988c1.52513 1.98493 4.52461 5.915 6.05 7.9l2.86-2.23a4.15053 4.15053 0 0 0 5.58-6.01z"/></g></svg>
