<svg id="Layer_1" enable-background="new 0 0 511.982 511.982" height="512" viewBox="0 0 511.982 511.982" width="512" xmlns="http://www.w3.org/2000/svg">
  <g>
    <path fill="#FFFFFF" d="m217.172 192.065 38.808-17.729 38.808 17.729 38.808-17.729 13.871 6.337-5.451-55.118c6.084-1.757 11.836-4.491 17.06-8.142 5.763 2.178 11.898 3.305 18.162 3.305 9.932 0 19.514-2.842 27.735-8.127 2.971.624 6.009.938 9.095.938 24.372 0 44.199-19.827 44.199-44.199 0-24.371-19.827-44.198-44.199-44.198-3.086 0-6.124.314-9.095.938-8.222-5.285-17.804-8.127-27.735-8.127-6.264 0-12.399 1.127-18.161 3.305-9.721-6.793-21.251-10.444-33.391-10.444-8.645 0-17.175 1.94-24.931 5.59-12.41-10.537-28.152-16.394-44.775-16.394s-32.365 5.857-44.774 16.394c-7.756-3.649-16.286-5.59-24.931-5.59-12.14 0-23.67 3.651-33.391 10.444-5.761-2.178-11.896-3.305-18.16-3.305-9.933 0-19.515 2.842-27.736 8.127-2.971-.624-6.009-.938-9.095-.938-24.372 0-44.199 19.827-44.199 44.198 0 24.372 19.827 44.199 44.199 44.199 3.086 0 6.124-.314 9.095-.938 8.222 5.285 17.804 8.127 27.736 8.127 6.264 0 12.399-1.127 18.161-3.305 5.225 3.651 10.976 6.385 17.06 8.142l-5.451 55.118 13.871-6.337z"/>
    <ellipse fill="#FFFFFF" cx="255.98" cy="398.502" rx="22.785" ry="26.669"/>
    <path fill="#FFFFFF" d="m6.264 199.611c-4.152 18.454-6.261 37.371-6.261 56.385 0 68.377 26.627 132.661 74.977 181.011s112.634 74.977 181.011 74.977 132.661-26.627 181.011-74.977c48.351-48.35 74.978-112.634 74.978-181.011 0-19.015-2.11-37.935-6.262-56.394l-55.699 25.446-38.808-17.729-38.807 17.729-38.808-17.729-38.808 17.729-38.808-17.729-38.808 17.729-38.808-17.729-38.808 17.729-38.807-17.729-38.808 17.729zm154.721 107.557c-16.267 0-29.5-13.233-29.5-29.5s13.233-29.5 29.5-29.5 29.5 13.233 29.5 29.5-13.234 29.5-29.5 29.5zm94.995 148.003c-29.105 0-52.785-25.422-52.785-56.669s23.68-56.669 52.785-56.669 52.785 25.422 52.785 56.669-23.68 56.669-52.785 56.669zm95.018-148.003c-16.267 0-29.5-13.233-29.5-29.5s13.233-29.5 29.5-29.5 29.5 13.233 29.5 29.5-13.234 29.5-29.5 29.5z"/>
  </g>
</svg>
