<svg id="Capa_1" enable-background="new 0 0 512 512" height="512" viewBox="0 0 512 512" width="512" xmlns="http://www.w3.org/2000/svg">
  <g>
    <path fill="#FFFFFF" d="m201 421h-161c-22.091 0-40 17.909-40 40v5c0 8.284 6.716 15 15 15h211c8.284 0 15-6.716 15-15v-5c0-22.091-17.909-40-40-40z"/>
    <g>
      <g>
        <g>
          <path fill="#FFFFFF" d="m476.5 91h-36.667c-8.284 0-15 6.716-15 15v15h-66.667v-15c0-8.284-6.716-15-15-15h-36.666c-8.284 0-15 6.716-15 15v35c0 16.569 13.431 30 30 30h140c16.569 0 30-13.431 30-30v-35c0-8.284-6.716-15-15-15z"/>
          <g>
            <path fill="#FFFFFF" d="m321.5 216c0 16.568 13.432 30 30 30h80c16.568 0 30-13.432 30-30v-15h-140z"/>
          </g>
        </g>
      </g>
      <g>
        <path fill="#FFFFFF" d="m432.206 275.982c-.236.003-.469.018-.706.018h-80c-.237 0-.47-.015-.706-.018-2.722 40.016-13.346 79.113-31.274 115.018h143.958c-17.926-35.905-28.55-75.002-31.272-115.018z"/>
      </g>
      <path fill="#FFFFFF" d="m472 421h-161c-22.091 0-40 17.909-40 40v5c0 8.284 6.716 15 15 15h211c8.284 0 15-6.716 15-15v-5c0-22.091-17.909-40-40-40z"/>
    </g>
    <path fill="#FFFFFF" d="m70.5 156h100l6.133-9.199c2.522-3.783 3.867-8.227 3.867-12.773 0-12.718-10.31-23.028-23.028-23.028h-21.972v-20h15c8.284 0 15-6.716 15-15s-6.716-15-15-15h-15v-15c0-8.284-6.716-15-15-15s-15 6.716-15 15v15h-15c-8.284 0-15 6.716-15 15s6.716 15 15 15h15v20h-21.972c-12.718 0-23.028 10.31-23.028 23.028 0 4.546 1.346 8.991 3.867 12.773z"/>
    <path fill="#FFFFFF" d="m70.5 246h100c16.569 0 30-13.431 30-30s-13.431-30-30-30h-100c-16.569 0-30 13.431-30 30s13.431 30 30 30z"/>
    <path fill="#FFFFFF" d="m79.793 276c-2.724 40.01-13.347 79.1-31.272 115h143.958c-17.925-35.9-28.548-74.99-31.272-115z"/>
  </g>
</svg>
