<svg clip-rule="evenodd" fill-rule="evenodd" height="43.349mm" image-rendering="optimizeQuality" shape-rendering="geometricPrecision" text-rendering="geometricPrecision" viewBox="0 0 4335 4335" width="43.349mm" xmlns="http://www.w3.org/2000/svg"><g id="Layer_x0020_1"><path d="m2391 1034v2436h-447v-2436c68 38 144 58 223 58 80 0 156-20 224-58zm-1094 2804h373v-82c0-51 20-97 54-130 33-33 79-54 129-54h629c50 0 96 21 129 54 34 33 54 79 54 130v82h372c28 0 51 22 51 51v132c0 51-20 97-54 130-33 34-79 54-129 54h-1475c-50 0-96-20-129-54-34-33-54-79-54-130v-132c0-29 22-51 50-51zm-1132-1941 584-1593-278-74c-27-8-43-35-36-63 7-27 35-43 62-35l331 88 2 1 1007 270c19-43 45-81 77-113 65-65 154-105 253-105 100 0 189 40 254 105s105 155 105 254c0 14-1 29-2 43l1340 359c27 7 43 35 36 62s-35 43-62 36l-238-64 570 1553h114c28 0 51 23 51 51v107c0 225-92 429-240 577s-352 240-576 240c-225 0-429-92-577-240s-240-352-240-577v-107c0-28 23-51 51-51h114l585-1593-955-255c-18 42-44 80-76 112-65 65-154 105-254 105-99 0-188-40-253-105s-105-154-105-253c0-15 1-29 2-43l-913-245 570 1553h114c28 0 51 22 51 50v108c0 225-92 429-240 577s-352 239-577 239c-224 0-428-91-576-239s-240-352-240-577v-108c0-28 23-50 51-50zm1195 0-544-1480-543 1480zm2702 724-543-1480-544 1480z" fill="#ffffff" fill-rule="nonzero"/></g></svg>
