<svg id="Layer_1" enable-background="new 0 0 456.653 456.653" height="512" viewBox="0 0 456.653 456.653" width="512" xmlns="http://www.w3.org/2000/svg">
  <g>
    <path fill="#FFFFFF" d="m442.129 92.933c-5.018 9.163-11.713 18.031-19.927 26.387-19.927 20.263-40.565 51.454-56.137 36.14-9.486-9.324-3.671-20.733 1.528-28.504 7.147-10.68 19.451-23.194 35.029-39.038 6.519-6.636 11.507-13.614 14.834-20.749-21.599-5.715-32.302-30.058-22.313-49.778-57.713-21.195-128.047 29.174-132.891 94.232-3.694 49.616 33.223 85.922 82.776 81.401 50.336-4.596 94.299-50.16 97.101-100.091z"/>
    <path fill="#FFFFFF" d="m422.517 68.109c-3.566 8.072-9.054 15.91-16.314 23.3-15.401 15.664-27.566 28.036-34.452 38.328-6.875 10.275-7.527 16.902-2.179 22.157 11.186 11.01 29.165-15.848 49.065-36.08 10.586-10.77 18.68-22.628 23.414-34.3-.373-5.375-1.253-10.626-2.615-15.621-5.325 2.103-11.154 2.865-16.919 2.216z"/>
    <path fill="#FFFFFF" d="m214.853 363.164c-6.255 2.87-13.401 4.324-21.253 4.325-44.382.002-95.656-44.348-106.512-91.158-3.202-13.81-2.518-26.504 1.976-36.768-16.118-1.493-30.142 1.724-40.625 9.324.066.1 1.511-.953-31.972 20.933-30.487 31.357-17.427 94.052 29.134 139.794 46.563 45.745 109.482 57.697 140.287 26.662 19.042-30.315 19.447-31.012 20.06-31.742l-.077-.058c7.693-10.677 10.794-24.948 8.982-41.312zm-53.9 65.942c-22.482 0-55.542-11.498-86.033-39.196-26.662-24.219-44.754-54.762-49.635-83.796-.228-1.36.692-2.652 2.051-2.88 1.363-.231 2.65.687 2.881 2.051 9.86 58.663 74.654 117.519 130.81 118.822.667.015 1.289.29 1.75.773 1.477 1.55.453 4.226-1.824 4.226z"/>
    <path fill="#FFFFFF" d="m227.994 294.772c-12.012 16.03-19.993 28.478-24.031 35.09 3.863-1.271 7.175-3.295 9.859-6.027.966-.983 2.552-.997 3.535-.031.974.957 1.011 2.54.031 3.536-5.863 5.969-14.196 9.125-24.099 9.126-39.169.001-84.14-48.333-76.32-85.045 1.261-5.945 3.903-10.999 7.854-15.022.873-.889 2.441-1.104 3.535-.032.987.969.999 2.552.031 3.536-2.05 2.087-3.69 4.557-4.889 7.357 6.75-3.353 19.345-10.191 35.174-21.462-43.307-16.957-77.136 4.472-66.716 49.404 9.025 38.912 48.149 77.348 87.214 85.681 44.304 9.448 65.675-23.433 48.822-66.111z"/>
    <path fill="#FFFFFF" d="m289.499 218.095c-21.737-13.904-42.317-34.106-56.632-55.589-18.903 23.296-40.186 43.97-63.264 61.457-19.318 14.639-37.394 24.928-47.973 29.729-2.851 16.459 6.319 37.893 23.422 54.695 15.829 15.552 36.31 24.508 52.253 22.865 15.227-26.214 48.413-71.423 92.194-113.157z"/>
    <path fill="#FFFFFF" d="m360.056 195.566c-66.862 16.167-116.623-37.677-99.763-102.427-33.876-10.813-49.781 6.637-36.512 41.489 14.15 37.165 56.162 78.46 93.608 91.967 33.667 12.143 49.744-2.351 42.667-31.029z"/>
    <path fill="#FFFFFF" d="m447.635 11.743c-5.779-5.683-13.394-8.696-21.371-8.629-16.656.138-29.951 13.67-29.872 30.273.1 21.669 22.824 36.874 43.548 26.808 18.49-9.22 22.493-33.899 7.695-48.452z"/>
  </g>
</svg>
