<svg id="Layer_1" enable-background="new 0 0 3000 3000" height="512" viewBox="0 0 3000 3000" width="512" xmlns="http://www.w3.org/2000/svg">
  <g transform="translate(-562 -2248)">
    <g id="Icons">
      <path clip-rule="evenodd" fill="#FFFFFF" d="m1654.533 4736.066 1.043 137.871 813.891-6.093-1.043-137.871zm59.145-35.624 695.074-5.216c.693-184.748 15.92-128.282-353.05-134.5-374.201 8.817-342.429-36.935-342.024 139.716zm66.123-172.852 560.238-4.219c-92.738-178.334-116.965-381.35-113.338-566.427l-342.105 2.638c8.01 229.864-27.387 410.801-104.795 568.008zm725.349-600.468-35.684 133.183 786.205 210.644 35.684-133.184zm-886.3 0 35.683 133.183-786.176 210.644-35.683-133.184zm952.798-18.634 671.426 179.943c49.928-178.059 49.057-119.515-304.574-223.615-363.393-91.191-320.198-126.524-366.852 43.672zm-1019.296 0-671.409 179.942c-49.94-178.081-49.02-119.533 304.545-223.615 363.406-91.189 320.21-126.524 366.864 43.673zm806.63-45.761c.24 32.051-25.588 58.242-57.638 58.476l-491.918 3.691c-32.051.235-58.271-25.546-58.511-57.597-.24-32.052 25.588-58.302 57.639-58.535l491.918-3.692c32.049-.234 58.27 25.548 58.51 57.657zm322.389-103.243 541.195 145.02c-41.865-196.716-11.546-397.633 41.426-576.153l-330.457-88.534c-53.449 223.71-135.715 388.711-252.164 519.667zm-1238.742 0-541.166 145.02c41.851-197.044 11.489-397.638-41.455-576.153l330.457-88.534c53.449 223.71 135.715 388.711 252.164 519.667zm480.334 13.184c-231.431-137.815-141.406-481.129 125.189-490.401 275.112 1.838 364.504 350.532 137.375 488.467zm1493.608-499.981c-8.262 30.938-40.137 49.337-71.133 41.074l-475.149-127.324c-30.955-8.32-49.359-40.195-41.063-71.132 8.297-30.996 40.166-49.394 71.127-41.074l475.143 127.324c30.996 8.261 49.394 40.137 41.075 71.132zm-2709.159 0c8.291 30.938 40.166 49.337 71.127 41.074l475.172-127.324c30.955-8.32 49.359-40.195 41.063-71.132-8.297-30.996-40.166-49.394-71.127-41.074l-475.172 127.324c-30.961 8.261-49.36 40.137-41.063 71.132zm2312.83-202.792c-188.685-197.211-3.689-507.408 258.28-437.547 259.153 80.685 247.283 434.257-4.627 505.517zm-1916.484 0c188.763-197.365 3.514-507.4-258.252-437.547-259.202 80.627-247.291 434.318 4.629 505.517z" fill-rule="evenodd"/>
    </g>
  </g>
</svg>
