<svg id="Layer_1" viewBox="0 0 512 512" xmlns="http://www.w3.org/2000/svg" data-name="Layer 1"><path d="m295.772 30.589-13.516 107.694c-.377 3.001-2.929 5.253-5.953 5.253h-40.607c-3.024 0-5.576-2.251-5.953-5.251l-13.545-107.694c-.325-2.582 1.052-5.079 3.409-6.183l33.834-15.842c1.611-.755 3.477-.755 5.088 0l33.834 15.842c2.356 1.103 3.733 3.599 3.409 6.181zm149.508 351.163-23.831-28.917v-148.037c0-66.994-43.415-125.904-104.845-147.463l-10.534 83.937c-1.881 14.974-14.678 26.264-29.767 26.264h-40.607c-15.089 0-27.885-11.289-29.766-26.26l-10.557-83.937c-61.436 21.564-104.851 80.469-104.851 147.458v148.039l-23.805 28.917c-2.002 2.431-1.783 5.997.501 8.165l118.449 112.432c1.138 1.08 2.623 1.648 4.132 1.648.799 0 1.604-.159 2.367-.487 2.203-.946 3.632-3.114 3.632-5.513v-195.943c0-2.144-1.144-4.125-3-5.196l-51.326-29.632v-47.74l83.806 48.361v68.332c0 1.874.875 3.639 2.366 4.774l24.707 18.807c2.145 1.634 5.117 1.634 7.266.002l24.736-18.807c1.492-1.135 2.368-2.902 2.368-4.776v-68.332l83.777-48.359v47.738l-51.327 29.632c-1.856 1.072-3 3.053-3 5.196v195.943c0 2.398 1.428 4.566 3.632 5.513 2.2.947 4.759.491 6.498-1.161l118.479-112.432c2.286-2.169 2.504-5.736.5-8.168z" fill="#ffffff"/></svg>
