<svg id="Capa_1" enable-background="new 0 0 512 512" height="512" viewBox="0 0 512 512" width="512" xmlns="http://www.w3.org/2000/svg">
    <path fill="white" d="m447.461 297.237c2.487-12.025 4.026-24.175 4.673-36.407 14.224-6.156 40.728-20.176 52.674-45.802 16.641-35.713-.879-77.534-1.641-79.307l-5.273-12.349-12.861 3.896c-1.831.557-46.146 14.004-62.787 49.702-14.07 30.196-3.785 64.49.209 75.518-.46 21.652-4.343 43.081-11.32 63.887-20.62 19.843-27.438 48.455-29.207 58.495-11.212 15.793-28.185 32.826-50.876 48.763-31.886 6.671-55.078 32.113-56.199 33.36l-1.113 1.241c-6.506 3.492-15.736 8.448-17.739 9.54-2.003-1.089-11.201-6.035-17.701-9.529l-1.122-1.252c-1.121-1.247-24.313-26.689-56.199-33.36-22.716-15.956-39.706-33.007-50.916-48.816-1.782-10.076-8.597-38.584-29.156-58.398-6.985-20.821-10.871-42.261-11.331-63.929 3.994-11.028 14.279-45.324.209-75.52-16.641-35.698-59.956-49.146-61.787-49.702l-13.861-3.896-5.273 12.349c-.762 1.772-18.281 43.594-1.641 79.307 11.946 25.627 38.452 39.646 52.676 45.802.646 12.226 2.184 24.371 4.669 36.392-25.313-5.803-50.142-.546-51.486-.236l-13.082 3.062 1.597 13.33c.234 1.904 6.962 46.89 39.247 69.492 19.122 13.376 45.976 16.344 67.936 13.557 7.764 10.226 17.34 21.275 28.786 31.238-24.754 9.619-41.786 28.266-42.742 29.33l-8.966 10.005 8.965 10.005c1.289 1.435 31.787 34.995 71.177 34.995 26.675 0 49.012-15.26 61.221-25.642 8.102 4.356 28.779 15.71 28.779 15.71s20.618-11.314 28.806-15.712c12.21 10.382 34.547 25.644 61.223 25.644 39.39 0 69.888-33.56 71.177-34.995l8.965-10.005-8.965-10.005c-.956-1.064-17.988-19.711-42.742-29.33 11.446-9.961 21.021-21.012 28.784-31.236 21.89 2.767 49.776-.176 68.923-13.559 32.256-22.603 37.998-67.588 38.232-69.492l1.597-13.33-13.081-3.062c-1.342-.298-26.153-5.531-51.458.251z"/>
    <path fill="white" d="m183.959 271h144.082l-19.828-90h-104.426z"/>
    <path fill="white" d="m181 90v37.211l23.789 23.789h102.422l23.789-23.789v-37.211h-60v-30h30v-30h-30v-30h-30v30h-30v30h30v30z"/>
    <path fill="white" d="m151 301h210v60h-210z"/>
</svg>
