<svg id="Layer_1" enable-background="new 0 0 3000 3000" height="512" viewBox="0 0 3000 3000" width="512" xmlns="http://www.w3.org/2000/svg">
  <g transform="translate(0 -2248)">
    <g id="Icons">
      <path clip-rule="evenodd" d="m1216.371 4577.395 45.533 155.741-919.16 268.77-45.533-155.684zm-131.226 5.038-6.686-22.851-674.689 197.285 6.686 22.853zm-722.614 33.4c736.841-209.562 711.226-236.297 747.121-153.575 10.137 74.145-72.45 71.176-100.91 84.329-88.591 25.91-257.245 75.24-395.728 115.746-147.656 40.644-233.276 76.729-254.752 62.36-52.782-20.924-46.925-93.642 4.269-108.86zm649.278-223.243-641.854 187.735c46.956-238.409 6.497-477.431-65.127-695.918l386.889-113.145c70.066 270.937 174.252 467.578 320.092 621.328zm340.699-660.586-84.381 146.133 816.65 471.504 84.381-146.191zm-152.356 426.446c.004-.061 74.742-129.421 76.977-133.332 18.209-46.57-41.169-53.449-50.565-26.533-4.716 8.162-22.313 38.639-39.452 68.324-17.688 30.635-34.68 60.064-36.265 62.81-17.673 31.952 27.393 61.387 49.305 28.731zm261.129-403.184 11.473-19.863 633.34 365.625-11.473 19.863zm721.705 212.578-633.346-365.624c-28.57-16.524-65.156-6.739-81.65 21.855-16.494 28.593-6.691 65.156 21.879 81.679l633.346 365.625c28.57 16.524 65.156 6.68 81.65-21.855 16.494-28.594 6.692-65.156-21.879-81.68zm-1167.48-35.802 148.811-39.843c15.211-4.103 24.246-19.747 20.174-34.982-4.078-15.175-19.734-24.257-34.939-20.156l-148.811 39.903c-15.211 4.043-24.252 19.688-20.174 34.922 4.072 15.177 19.728 24.259 34.939 20.156zm1156.711-9.902c205.131-522.363 981.838-718.534 416.531-1238.378l-34.693-189.669-80.807 139.921-79.031-54.082c-.073.019-80.221 52.998-82.216 54.295-186.496 54.512-401.076 58.234-493.649 97.538-152.207 111.427-88.39 349.883 197.613 282.934 48.879 77.929 131.385 132.304 243.457 165.995-304.084 22.442-531.27 147.656-651.814 415.431zm-2045.473-90.233c10.588 36.21 48.568 57.011 84.768 46.406l555.545-162.48c36.193-10.547 56.988-48.516 46.4-84.726-10.582-36.21-48.568-57.011-84.762-46.407l-555.545 162.48c-36.199 10.546-56.994 48.573-46.406 84.727zm2568.727-1088.145c366.528 420.018-135.369 661.665-370.084 980.8l130.846 70.254c35.642-90.915 136.115-198.279 205.728-283.305 201.754-240.271 414.347-521.273 33.51-767.749zm-1676.543 894.199 133.424 77.052c13.635 7.851 31.096 3.163 38.971-10.43 7.875-13.653 3.193-31.114-10.441-38.966l-133.424-77.05c-13.635-7.852-31.096-3.223-38.971 10.43-7.87 13.651-3.194 31.112 10.441 38.964zm-294.024-85.372c2.508-93.277-88.3-63.034-106.642-55.337-44.467 13.004-125.929 36.835-206.601 60.434-79.438 23.239-157.534 46.084-198.165 57.97-87.293 16.417-76.113 78.82-54.462 102.401 1.682-.585 3.387-1.113 5.121-1.639l555.545-162.482c1.736-.467 3.47-.936 5.204-1.347zm-88.675-93.924c1.811-8.848 1.547-18.282-1.166-27.599-8.9-30.41-40.834-47.871-71.268-38.964l-355.512 103.945c-30.434 8.906-47.918 40.84-39.018 71.25 2.713 9.317 7.564 17.345 13.863 23.848zm-98.848-92.228c41.467-231.871-130.75-513.513-304.524-477.699-201.647 55.591-162.262 422.973-16.148 571.449zm-265.125-512.637c38.019-66.138-21.666-140.688-92.235-122.88-77.121 21.4-81.635 121.73-16.351 154.521 30.615-22.226 69.877-34.039 108.586-31.641z" fill="#FFFFFF" fill-rule="evenodd"/>
    </g>
  </g>
</svg>
