<svg id="Layer_1" enable-background="new 0 0 66 66" height="512" viewBox="0 0 66 66" width="512" xmlns="http://www.w3.org/2000/svg">
  <g>
    <path fill="#FFFFFF" d="m32.7674 32.4701c-.74.46-1.4 1.03-1.96 1.7-1.24 1.44-1.98 3.31-1.98 5.36 0 .32.02.64.05.95h6.24c.09-.71.29-1.17.29-1.17.63-1.82.82-5.01.84-8.03-1.27.13-2.45.55-3.48 1.19zm-1.9-7.99c.53-.22 1.07-.41 1.63-.58 1.07-.32 2.19-.53 3.34-.62-.21-1.29-.53-2.56-.96-3.79-3.66-10.51-12.55-15.66-14.05-16.46-.11-.06-.23.01-.23.13v6.27c0 .09-.0699.14-.16.12-.57-.12-1.12-.16-1.65-.15-2.2599.05-4.38 1.23-5.71 3.05-2.55 3.53-7.13 6.83-7.65 7.2-.01.03-.02.06-.02.09l2.89 5.6c.04.01.06.01.11.02 2.2401-2.42 10.1-2.68 12.03-2.71.11-.01.14.12.05.18-1.92 1.22-4.64 7.04-6.26 10.85-.9 2.13-1.37 4.41-1.37 6.73 0 .02 0 .04-.01.07h8.01c-.02-.32-.03-.63-.03-.95 0-6.77 4.15-12.5899 10.04-15.05zm-13.23-8.12c-.67 0-1.22-.55-1.22-1.23s.55-1.23 1.22-1.23 1.22.55 1.22 1.23-.55 1.23-1.22 1.23z"/>
    <path fill="#FFFFFF" d="m21.0174 41.9801c.46 3.1 1.81 5.92 3.78 8.19h-16.91v-3.86c1.14-.22 2.16-.84 2.87-1.76.55-.73 1.52-1.63 1.55-2.57z"/>
    <path fill="#FFFFFF" d="m40.0374 46.3101v1c-.9.33-1.89.52-2.91.52-3.72 0-6.88-2.47-7.94-5.85h7.05c.52.75.43 1.58.98 2.41.65.97 1.67 1.65 2.82 1.92z"/>
    <path fill="#FFFFFF" d="m42.4574 54.9301v2.77h-36.99v-5.53h21.39c2.8 2.29 6.38 3.66 10.27 3.66 1.86 0 3.66-.32 5.33-.9z"/>
    <path fill="#FFFFFF" d="m59.5877 57.0893-8.62-8.61-.89.89-1.4128-1.4128c1.7316-2.3652 2.7668-5.2712 2.7668-8.4232 0-7.9-6.41-14.3-14.3-14.3-7.9 0-14.3 6.4-14.3 14.3 0 7.89 6.4 14.3 14.3 14.3 3.1519 0 6.0579-1.0353 8.4232-2.7668l1.4128 1.4128-.89.89 8.61 8.61c1.36 1.35 3.54 1.35 4.9 0 1.3399-1.35 1.3399-3.54 0-4.89zm-22.456-7.256c-5.68 0-10.3-4.62-10.3-10.3s4.6201-10.3 10.3-10.3 10.3 4.62 10.3 10.3-4.62 10.3-10.3 10.3z"/>
  </g>
</svg>
