<svg id="Layer_1" height="512" viewBox="0 0 512 512" width="512" xmlns="http://www.w3.org/2000/svg" data-name="Layer 1"><path d="m244.87 384.075v-47.9-235.433q-7.977-5.453-15.621-10.1-10-6.08-20.758-11.61a300.147 300.147 0 0 0 -78.968-27.75 303.427 303.427 0 0 0 -73.9-5.358v287.6a321.53 321.53 0 0 1 101.942 11.494 335 335 0 0 1 87.308 39.053zm22.261-283.333v283.332a335 335 0 0 1 87.306-39.052 321.53 321.53 0 0 1 101.942-11.494v-287.602a303.373 303.373 0 0 0 -73.963 5.37 300.187 300.187 0 0 0 -79.023 27.8q-10.72 5.519-20.7 11.585-7.613 4.627-15.563 10.063zm-233.772 244.611h.009q0 .432.034.87a11.121 11.121 0 0 0 11.957 10.217q55.258-4.347 106.2 9.974 50.929 14.317 97.857 47.353a11.114 11.114 0 0 0 12.972.133q47.013-33.139 98.047-47.486 50.745-14.265 105.765-10.007a11.288 11.288 0 0 0 1.308.077 11.131 11.131 0 0 0 11.13-11.131v-261.061c10.159.036 19.114.1 22 .19q5.484.172 11.358.517v311.415a403.289 403.289 0 0 0 -129.508 14.823c-43.036 12.062-84.538 30.91-124.87 55.2-41.7-25.068-85.413-44.342-130.748-56.345a414.486 414.486 0 0 0 -126.87-13.677v-311.415q5.873-.344 11.353-.517c2.794-.088 11.713-.15 22.006-.187z" fill="white" fill-rule="evenodd"/></svg>
