<svg id="Layer_1" enable-background="new 0 0 512 512" viewBox="0 0 512 512" xmlns="http://www.w3.org/2000/svg">
    <path fill="#FFFFFF" d="m189.75 68.77c-.88-2.13-.4-4.42 1.22-6.07l61.09-61.09c2.18-2.15 5.7-2.15 7.88 0l61.09 61.09c1.62 1.64 2.1 3.94 1.22 6.07s-2.86 3.43-5.16 3.43h-31.86c-3.09 0-5.58 2.52-5.58 5.58v118.18l-23.65 13.67-23.64-13.66v-118.18c0-3.06-2.49-5.58-5.58-5.58h-31.86c-2.3-.01-4.29-1.31-5.17-3.44zm-133.65 146.89c.6 2.24 2.38 3.8 4.65 4.08 2.27.31 4.39-.74 5.56-2.72l15.93-27.61c1.53-2.66 4.96-3.57 7.6-2.04l102.36 59.07 47.28-27.3-126-72.74c-2.64-1.53-3.57-4.96-2.01-7.6l15.93-27.61c1.13-2.01.99-4.37-.4-6.18-1.42-1.81-3.66-2.58-5.87-1.98l-83.45 22.37c-2.98.79-4.73 3.85-3.94 6.8zm55.36 157.52c-1.56-2.66-.62-6.07 2.01-7.6 102.9-59.41 205.79-118.83 308.69-178.21 2.64-1.53 6.07-.62 7.6 2.04l15.93 27.61c1.16 1.98 3.29 3.03 5.56 2.72 2.27-.28 4.05-1.84 4.65-4.08l22.37-83.45c.79-2.95-.96-6.01-3.94-6.8l-83.45-22.37c-2.21-.6-4.45.17-5.87 1.98-1.39 1.81-1.53 4.17-.4 6.18l15.93 27.61c1.53 2.64.62 6.07-2.01 7.6-102.9 59.39-205.8 118.8-308.69 178.21-2.64 1.53-6.07.62-7.6-2.04l-15.93-27.61c-1.16-1.98-3.29-3.03-5.56-2.75-2.27.31-4.05 1.87-4.65 4.08l-22.37 83.45c-.79 2.98.96 6.04 3.94 6.83l83.45 22.37c2.21.6 4.45-.17 5.87-1.98 1.39-1.84 1.53-4.2.4-6.18zm205.63 66.59h-31.86c-3.09 0-5.58-2.49-5.58-5.56v-118.2l-23.65-13.64-23.64 13.66v118.18c0 3.06-2.49 5.56-5.58 5.56h-31.86c-2.3 0-4.28 1.3-5.16 3.43s-.4 4.45 1.22 6.07l61.09 61.12c2.18 2.15 5.7 2.15 7.88 0l61.09-61.12c1.62-1.62 2.1-3.94 1.22-6.07s-2.88-3.43-5.17-3.43zm138.81-143.46c-.6-2.21-2.38-3.77-4.65-4.08-2.27-.28-4.39.77-5.56 2.75l-15.93 27.61c-1.53 2.66-4.96 3.57-7.6 2.04l-102.36-59.1-47.28 27.3 126 72.77c2.64 1.53 3.54 4.93 2.01 7.6l-15.93 27.61c-1.16 1.98-.99 4.34.4 6.18 1.42 1.81 3.66 2.58 5.87 1.98l83.45-22.37c2.98-.79 4.73-3.85 3.94-6.83z"/>
</svg>
